<?xml version="1.0" encoding="utf-8"?>
<!-- Generator: Adobe Illustrator 28.0.0, SVG Export Plug-In . SVG Version: 6.00 Build 0)  -->
<svg version="1.0" id="katman_1" xmlns="http://www.w3.org/2000/svg" xmlns:xlink="http://www.w3.org/1999/xlink" x="0px" y="0px"
	 viewBox="0 0 841.89 595.28" style="enable-background:new 0 0 841.89 595.28;" xml:space="preserve">
<style type="text/css">
	.st0{fill:#018394;}
	.st1{fill:url(#SVGID_1_);}
	.st2{fill:url(#SVGID_00000008838527929670940200000016907808692437600401_);}
	.st3{clip-path:url(#SVGID_00000081607750189262195300000011413054468983928254_);}
	.st4{fill:url(#SVGID_00000019663541362829960100000011591151375888615045_);}
	.st5{fill:url(#SVGID_00000180326734171752921370000017119120747107610028_);}
	.st6{fill:url(#SVGID_00000113316668987189338740000008198203026626287491_);}
	.st7{fill:url(#SVGID_00000045586605403422328250000005524211319864507569_);}
	.st8{fill:url(#SVGID_00000054982711045813664530000010369018251440101790_);}
	.st9{fill:url(#SVGID_00000106119855569493285620000008591490615597887144_);}
	.st10{fill:url(#SVGID_00000172404577288270579460000004345859035827713976_);}
	.st11{fill:url(#SVGID_00000118391976834770424700000003792865036821850556_);}
	.st12{fill:url(#SVGID_00000041287502308214744100000005387148781592893070_);}
	.st13{fill:url(#SVGID_00000011024458627644293760000013202011050880523689_);}
</style>
<g>
	<path class="st0" d="M524.14,292.21c-7.42-7.05-17.5-10.94-28.38-10.94c-10.89,0-20.93,3.89-28.31,10.95
		c-7.39,7.07-11.46,16.74-11.46,27.24c0,10.49,4.08,20.13,11.46,27.16c7.36,7.01,17.41,10.87,28.31,10.87
		c10.89,0,20.98-3.86,28.38-10.87c7.44-7.05,11.54-16.69,11.54-27.16C535.68,308.98,531.59,299.3,524.14,292.21L524.14,292.21z
		 M495.76,297.77c6.04,0,11.63,2.21,15.75,6.23c4.14,4.07,6.45,9.64,6.4,15.45c0,12.08-9.72,21.54-22.15,21.54
		c-6.03,0-11.6-2.21-15.68-6.21c-4.1-4.04-6.38-9.57-6.33-15.32c0-12.35,9.46-21.68,22-21.68
		C495.76,297.78,495.76,297.77,495.76,297.77z"/>
	<path class="st0" d="M605.18,292.21c-7.42-7.05-17.5-10.94-28.38-10.94c-10.89,0-20.94,3.89-28.31,10.95
		c-7.39,7.07-11.46,16.74-11.46,27.23c0,10.5,4.07,20.13,11.46,27.17c7.36,7.01,17.41,10.87,28.31,10.87
		c10.89,0,20.98-3.86,28.38-10.87c7.44-7.05,11.54-16.69,11.54-27.17C616.71,308.98,612.61,299.3,605.18,292.21L605.18,292.21z
		 M576.79,297.77c6.04,0,11.63,2.21,15.75,6.23c4.14,4.07,6.45,9.64,6.4,15.45c0,12.08-9.73,21.54-22.15,21.54
		c-6.03,0-11.6-2.21-15.68-6.21c-4.1-4.04-6.38-9.57-6.33-15.32c0-12.35,9.46-21.68,22-21.68
		C576.79,297.78,576.79,297.77,576.79,297.77z"/>
	<path class="st0" d="M705.22,281.61c-11.28,0-18.33,6.1-23.21,11.54c-4.83-7.76-12.35-11.54-22.98-11.54
		c-10.62,0-16.87,5.14-21.01,10.41v-8.05h-17.93v72.37h17.93v-48.95c3.64-6.73,8.44-9.87,15.09-9.87c9.76,0,16.07,6.76,16.07,17.22
		v41.6h18.08v-48.41c0.02-0.69,0.11-1.56,0.24-1.74c3.88-5.59,9.07-8.67,14.61-8.67c10.11,0,16.38,6.6,16.38,17.22v41.6h18.24
		v-44.72C736.73,293.67,724.06,281.6,705.22,281.61L705.22,281.61z"/>
	<path class="st0" d="M374.81,292.21c-7.41-7.05-17.5-10.94-28.38-10.94c-7.86,0-15.36,2.04-21.72,5.91v-33.37h-17.24v102.52h17.24
		v-4.69c6.35,3.83,13.85,5.86,21.72,5.86c10.9,0,20.98-3.86,28.38-10.87c7.44-7.05,11.54-16.69,11.54-27.16
		c0-10.47-4.1-20.15-11.54-27.24L374.81,292.21L374.81,292.21z M346.43,297.77c6.05,0,11.64,2.21,15.76,6.23
		c4.14,4.07,6.45,9.64,6.4,15.45c0,12.08-9.73,21.54-22.16,21.54c-6.02,0-11.59-2.21-15.68-6.21c-4.09-4.04-6.37-9.57-6.32-15.32
		c0-12.35,9.46-21.68,22-21.68C346.43,297.78,346.43,297.77,346.43,297.77z"/>
	<path class="st0" d="M458.03,297.75c3.38-9.07,5.09-17.86,5.09-26.11c0-6.63-1.18-12.78-3.32-17.31
		c-3.55-7.52-9.28-13.09-15.73-15.3c-2.36-0.76-4.83-1.13-7.31-1.1c-3.91,0-10,0.83-16.81,4.79c-12.91,7.53-21.33,21.23-25.75,41.91
		c-3.85,18.04-2.3,34.86,4.5,48.68c-5.59,2.55-9.76,4.16-11.75,4.52c-0.04,0.01-0.08,0.02-0.13,0.03l-0.19,0.06l-0.03,0.2
		l-2.3,19.19l-0.05,0.46l0.44-0.13c0.09-0.03,10.05-3,23.6-10.03c10.07,10.23,23.7,15.65,39.41,15.65h0.3v-17.58h-0.3
		c-9.26,0-17.24-2.55-23.76-7.56c12.73-8.78,26.65-20.46,34.07-40.36L458.03,297.75L458.03,297.75z M413.7,324.67
		c-4.7-10.08-5.64-22.63-2.72-36.3c4.26-19.97,12.17-28.19,18.05-31.57c2.35-1.38,5.03-2.07,7.75-1.98c0.83,0,1.71,0.28,2.11,0.44
		c2.12,0.88,3.89,2.91,5.45,6.19c3.32,7.05,3.01,16.64-0.91,27.69c-4.82,13.58-14.81,25.54-29.71,35.54L413.7,324.67z"/>
	
		<linearGradient id="SVGID_1_" gradientUnits="userSpaceOnUse" x1="448.2619" y1="222.9216" x2="398.8347" y2="289.763" gradientTransform="matrix(1 0 0 -1 -0.0151 596.7022)">
		<stop  offset="0.336" style="stop-color:#018394;stop-opacity:0"/>
		<stop  offset="1" style="stop-color:#018394"/>
	</linearGradient>
	<path class="st1" d="M408.3,347.58c10.07,10.24,23.7,15.65,39.41,15.65h0.31v-17.58h-0.31c-9.26,0-17.24-2.54-23.75-7.56
		L408.3,347.58z"/>
	
		<linearGradient id="SVGID_00000127006306243007727540000017882588015113441417_" gradientUnits="userSpaceOnUse" x1="398.666" y1="295.3881" x2="411.8097" y2="242.6185" gradientTransform="matrix(1 0 0 -1 -0.0151 596.7022)">
		<stop  offset="0.15" style="stop-color:#018394;stop-opacity:0"/>
		<stop  offset="0.8" style="stop-color:#018394"/>
	</linearGradient>
	<path style="fill:url(#SVGID_00000127006306243007727540000017882588015113441417_);" d="M413.71,324.67
		c-2.43-5.2-3.86-11.07-4.26-17.41c0,0-3.24-2.11-8.73-1.82c-5.49,0.28-8.43,2.67-8.43,2.67c0.55,9.1,2.7,17.6,6.43,25.19
		l14.99-8.63C413.7,324.67,413.71,324.67,413.71,324.67z"/>
	<g>
		<defs>
			<rect id="SVGID_00000150095389088591657660000011864232237247199159_" x="109.64" y="217.06" width="169.73" height="166.45"/>
		</defs>
		<clipPath id="SVGID_00000132072072440702207520000008177427928426503841_">
			<use xlink:href="#SVGID_00000150095389088591657660000011864232237247199159_"  style="overflow:visible;"/>
		</clipPath>
		<g style="clip-path:url(#SVGID_00000132072072440702207520000008177427928426503841_);">
			<path class="st0" d="M278.62,281.65c-2.55-12.09-11.23-22.14-22.66-26.18c-8.28-2.93-15.96-3.72-22.45-3.29h-0.01
				c-10.44-38.45-59.55-54.34-77.22-0.41c-3.4-0.19-6.82-0.07-10.2,0.38c-15.7,2.03-27.87,10.32-33.37,22.73
				c-5,11.29-3.84,24.54,3.04,34.58c5,7.31,10.8,12.5,16.32,15.99c-1.24,3.2-2.17,6.51-2.8,9.89c-2.93,15.66,1.14,29.87,11.17,38.96
				c6.53,5.91,15.01,9.2,23.82,9.22c3.3,0,6.6-0.48,9.81-1.43c8.44-2.54,15.15-6.48,20.16-10.68c2.64,2.17,5.48,4.09,8.47,5.74
				c7.39,4.06,15,6.11,22.27,6.11c6.32,0.04,12.53-1.61,18-4.77c10.65-6.18,17.45-17.59,17.75-29.78
				c0.21-8.87-1.43-16.49-3.86-22.59c2.76-1.79,5.46-3.88,8.05-6.33C276.41,308.84,281.4,294.94,278.62,281.65L278.62,281.65z
				 M178.15,255.07l0.23-0.66l0.08-0.21c1.54-4.34,3.47-7.62,5.64-9.97l0.02-0.01c1.58-1.7,3.29-2.91,5.04-3.67
				c0.27-0.11,0.53-0.21,0.8-0.31l0.02-0.01c0.2-0.08,0.41-0.14,0.63-0.19c0.25-0.08,0.5-0.15,0.75-0.19
				c0.23-0.06,0.47-0.11,0.71-0.14l0.15-0.03h0.03c5.84-0.84,11.9,2.67,16.02,8.9c1.78,2.73,3.11,5.73,3.93,8.89l-0.35,0.14
				c-6.49,2.35-12.53,5.8-17.85,10.2c-4.99-4.26-10.54-7.83-16.49-10.61C177.71,256.46,177.93,255.75,178.15,255.07z M143.76,306.82
				c-0.39-0.25-0.78-0.51-1.16-0.78l-0.6-0.44c-0.2-0.15-0.41-0.3-0.6-0.46c-0.85-0.66-1.67-1.36-2.44-2.11l-0.66-0.66
				c-0.14-0.13-0.28-0.28-0.42-0.43c-1.49-1.55-2.85-3.22-4.06-5c-2.53-3.7-2.95-8.84-1.07-13.09c2.38-5.37,7.96-8.77,16.14-9.83
				l1.05-0.13h0.14c0.47-0.06,0.94-0.08,1.41-0.11l0.54-0.01c0.61-0.03,1.24-0.03,1.84-0.01c0.29,0,0.58,0.02,0.88,0.04
				c0.13,5.54,1.09,12.65,4.13,20.51C153.3,297.79,148.21,302,143.76,306.82z M167.81,360.94c-4.28,1.29-9.26,0.09-12.69-3.02
				c-4.34-3.94-5.83-10.33-4.3-18.5c0.38-1.99,0.92-3.88,1.59-5.66c6.7,1.99,13.7,2.8,20.68,2.38c1.27,5.18,3.45,11.73,7.14,18.34
				C177.48,356.76,173.35,359.28,167.81,360.94L167.81,360.94z M197.39,321.41c-0.51,1.79-0.86,3.62-1.03,5.47
				c-0.05,0.41-0.12,1.03-0.15,1.19c-0.34,1.59-0.78,3.16-1.32,4.7c-1.38-4.85-1.67-8.37-1.68-8.43c-0.03-0.57-0.11-1.13-0.23-1.69
				c-1.06-4.83-5.36-9.66-12.69-9.64c-2.03,0.02-3.95,0.41-5.49,0.71c-0.39,0.08-0.78,0.16-1.17,0.23
				c-1.61,0.16-3.23,0.22-4.85,0.19c2.35-1.63,4.84-3.03,7.44-4.2c0.53-0.21,1.03-0.46,1.52-0.75c4.25-2.5,7.5-8.15,5.19-15.13
				c-0.65-1.94-1.6-3.66-2.36-5.04l-0.58-1.05c-0.65-1.5-1.21-3.03-1.68-4.58l0.72,0.58c0.23,0.19,0.46,0.37,0.68,0.56
				c1.25,1.04,2.44,2.15,3.59,3.3c0.11,0.13,0.23,0.23,0.33,0.34l0.59,0.63l0.31,0.34l0.06,0.08c0.36,0.44,0.75,0.84,1.17,1.22
				c3.67,3.29,10.02,4.64,15.9,0.29c1.64-1.22,2.96-2.67,4.03-3.83c0.27-0.3,0.54-0.59,0.82-0.87c1.29-1.15,2.56-2.15,3.82-3.03
				c-1.11,2.79-2.28,5.14-3.25,7.24v0.02c-0.94,2.04-1.69,3.84-2.03,5.57c-0.01,0.02-0.01,0.03-0.01,0.04
				c-0.42,2.16-0.19,4.23,1.12,6.53c0.91,1.59,2.35,3.29,4.45,5.21c1.19,0.81,2.44,1.52,3.73,2.15c1.24,0.63,2.45,1.22,3.62,1.91
				c0.9,0.53,1.78,1.12,2.61,1.84c-2.85-0.08-5.69-0.41-8.48-1c-0.54-0.14-1.1-0.24-1.66-0.29
				C205.53,311.76,199.6,314.41,197.39,321.41L197.39,321.41L197.39,321.41z M232.02,359.38c-5.06,2.94-11.57,2.38-18.81-1.6
				c-1.72-0.94-3.34-2.04-4.86-3.28c3.96-5.8,6.89-12.24,8.64-19.04c5.29,0.38,12.15,0.32,19.54-1.17
				c1.31,3.33,2.41,8.07,2.26,13.87C238.69,352.65,236.03,357.05,232.02,359.38L232.02,359.38z M249.85,303.73
				c-1.42,1.35-2.96,2.57-4.6,3.64c-4.25-5.57-9.43-10.36-15.33-14.15c2.63-6.07,4.37-12.5,5.15-19.07l0.38-0.02l0.41-0.02h0.43
				c0.5,0,1.02,0,1.57,0.01l1.29,0.08l0.88,0.08c0.41,0.04,0.82,0.09,1.23,0.16l1.22,0.19l0.5,0.1c0.67,0.13,1.36,0.28,2.06,0.45
				l0.56,0.14c1,0.27,2.03,0.58,3.07,0.96c4.2,1.49,7.54,5.39,8.5,9.95C258.38,291.98,255.85,298.04,249.85,303.73z"/>
		</g>
	</g>
	<path class="st0" d="M211.88,277.91"/>
	<path class="st0" d="M213.36,265.85v0.09c0.02,0.68-0.01,1.33-0.03,2.01c-0.02,0.7-0.09,1.42-0.14,2.11c0,0.08-0.02,0.16-0.03,0.24
		c-0.05,0.57-0.11,1.14-0.18,1.71l-0.06,0.42c-0.06,0.52-0.14,1.03-0.23,1.54l-0.07,0.38c-0.21,1.19-0.46,2.38-0.75,3.56l-0.11,0.38
		c-0.24,0.96-0.52,1.92-0.83,2.86l-0.14,0.44l-0.49,1.42c-1.25,0.88-2.53,1.88-3.82,3.04c-0.11,0.11-0.53,0.56-0.82,0.88
		c-1.07,1.16-2.38,2.61-4.02,3.82c-5.88,4.36-12.23,3-15.9-0.29c-0.42-0.38-0.81-0.79-1.17-1.23c-0.05-0.05-2.33-2.73-6.29-5.83
		c-3.99-3.18-8.46-5.71-13.24-7.49c-1.31-0.48-2.65-0.88-4.01-1.2c-2.07-0.5-4.18-0.81-6.31-0.92c-1.95-0.11-3.92-0.03-5.86,0.22
		c-8.18,1.06-13.76,4.45-16.15,9.83c-1.88,4.25-1.47,9.39,1.07,13.08c3.27,4.78,6.94,7.96,9.95,9.88
		c-5.03,5.43-8.99,11.75-11.68,18.64c-5.52-3.48-11.31-8.69-16.32-16c-6.88-10.03-8.04-23.29-3.04-34.59
		c5.5-12.42,17.67-20.71,33.36-22.74c3.38-0.44,6.8-0.57,10.2-0.38c7.35,0.46,14.56,2.3,21.23,5.43
		c5.95,2.78,11.49,6.35,16.49,10.61c5.42-4.47,11.59-7.97,18.21-10.33c0.16,0.56,0.29,1.13,0.41,1.68l0.21,1.05l0.1,0.56
		c0.08,0.47,0.14,0.93,0.19,1.39c0,0.05,0.02,0.11,0.03,0.16c0.06,0.51,0.1,1.02,0.14,1.53c0.05,0.69,0.06,1.38,0.09,2.06
		C213.37,265.86,213.36,265.85,213.36,265.85z"/>
	<path class="st0" d="M256.86,326.1c-6.2,3.98-13.1,6.75-20.33,8.17c1.32,3.34,2.41,8.08,2.28,13.88c-0.11,4.5-2.77,8.89-6.79,11.22
		c-5.06,2.94-11.57,2.38-18.81-1.59c-1.72-0.95-3.34-2.05-4.86-3.29c-1.67-1.36-3.21-2.87-4.6-4.52c-0.9-1.05-1.74-2.16-2.52-3.3
		c-2.84-4.27-4.98-8.97-6.35-13.91c-0.81-2.75-1.37-5.57-1.67-8.42c-0.03-0.57-0.11-1.14-0.24-1.69c-1.05-4.83-5.36-9.66-12.69-9.63
		c-1.85,0.06-3.69,0.3-5.49,0.71c-0.41,0.08-1,0.2-1.17,0.23c-1.71,0.17-3.32,0.22-4.85,0.19c-4.24,2.84-8.01,6.33-11.16,10.35
		c-2.19,2.81-3.95,5.93-5.22,9.26c6.7,1.99,13.7,2.8,20.68,2.39c1.27,5.18,3.45,11.73,7.15,18.34c3.57,6.47,8.31,12.22,14,16.94
		c2.53,2.09,5.35,4.03,8.47,5.75c7.39,4.06,15.01,6.11,22.26,6.11c6.32,0.04,12.53-1.61,18-4.77c10.66-6.21,17.37-17.47,17.75-29.79
		C260.94,339.84,259.29,332.2,256.86,326.1L256.86,326.1L256.86,326.1z"/>
	<path class="st0" d="M161.06,274.68c-2.07-0.5-4.19-0.81-6.31-0.92c0.13,5.54,1.1,12.65,4.13,20.53
		c-5.57,3.47-10.66,7.68-15.11,12.5c-5.02,5.43-8.98,11.75-11.68,18.64c-1.24,3.21-2.18,6.52-2.81,9.9
		c-2.92,15.67,1.15,29.87,11.17,38.97c6.52,5.92,15.01,9.2,23.82,9.22c3.3,0,6.6-0.47,9.8-1.44c8.45-2.53,15.16-6.46,20.15-10.67
		c-5.68-4.72-10.43-10.47-14-16.94c-2.75,2.29-6.89,4.81-12.42,6.47c-4.28,1.29-9.26,0.09-12.7-3.02c-4.34-3.94-5.83-10.34-4.3-18.5
		c0.38-2.01,0.92-3.89,1.6-5.68c0.76-2,1.7-3.93,2.82-5.76c0.75-1.23,1.55-2.4,2.4-3.5c3.15-4.02,6.91-7.51,11.15-10.35
		c2.35-1.63,4.84-3.03,7.44-4.2c0.52-0.21,1.03-0.46,1.52-0.75c4.25-2.5,7.49-8.15,5.19-15.13c-0.65-1.94-1.61-3.66-2.36-5.04
		c-0.2-0.35-0.39-0.7-0.58-1.05c-0.65-1.49-1.21-3.02-1.68-4.58c-3.99-3.18-8.46-5.71-13.24-7.49c-1.31-0.48-2.65-0.88-4.01-1.2
		C161.05,274.67,161.06,274.68,161.06,274.68z"/>
	<path class="st0" d="M278.62,281.62c-2.55-12.1-11.22-22.14-22.66-26.19c-8.32-2.95-15.98-3.74-22.49-3.3
		c1.92,7.16,2.47,14.61,1.61,21.97c3.56-0.2,8.14,0.21,13.58,2.13c4.2,1.5,7.54,5.41,8.5,9.96c1.21,5.76-1.32,11.81-7.31,17.51
		c-1.43,1.35-2.97,2.57-4.62,3.64c-1.84,1.22-3.76,2.19-5.69,3c-1.29,0.54-2.6,1-3.89,1.39c-4.91,1.4-10.01,2-15.11,1.78
		c-2.85-0.08-5.68-0.41-8.47-1c-0.55-0.14-1.1-0.24-1.66-0.29c-4.9-0.5-10.82,2.16-13.02,9.17c-0.52,1.79-0.86,3.62-1.03,5.47
		c-0.05,0.41-0.12,1.03-0.15,1.19c-0.35,1.59-0.79,3.15-1.32,4.69c1.85,6.5,5.68,15.41,13.46,21.73c3.96-5.8,6.89-12.25,8.65-19.05
		c5.29,0.38,12.14,0.32,19.53-1.17c7.23-1.42,14.13-4.19,20.33-8.16c2.76-1.79,5.46-3.89,8.05-6.34
		C276.42,308.81,281.42,294.9,278.62,281.62L278.62,281.62L278.62,281.62z"/>
	
		<linearGradient id="SVGID_00000085931837433396447370000017783195422141604283_" gradientUnits="userSpaceOnUse" x1="242.6076" y1="287.0529" x2="176.4748" y2="233.2549" gradientTransform="matrix(1 0 0 -1 -0.0151 596.7022)">
		<stop  offset="0.15" style="stop-color:#018394;stop-opacity:0"/>
		<stop  offset="1" style="stop-color:#018394"/>
	</linearGradient>
	<path style="fill:url(#SVGID_00000085931837433396447370000017783195422141604283_);" d="M256.86,326.1
		c-6.2,3.98-13.1,6.75-20.33,8.17c-6.43,1.26-13,1.66-19.53,1.17c-1.76,6.8-4.68,13.25-8.65,19.05
		c-7.78-6.31-11.61-15.23-13.46-21.73c0.5-1.45,0.95-3.01,1.32-4.7l0.15-1.19c0.19-1.57,0.42-3.51,1.03-5.47
		c2.2-7.01,8.13-9.66,13.02-9.17c0.56,0.06,1.12,0.15,1.66,0.29c0.07,0.02,3.47,0.82,8.48,1c5.1,0.21,10.19-0.39,15.1-1.78
		c1.3-0.38,2.6-0.85,3.9-1.39c1.92-0.8,3.84-1.79,5.69-3c0,0,5.69,1.91,9.12,7.4c3.07,4.92,2.48,11.35,2.48,11.35L256.86,326.1
		L256.86,326.1z"/>
	
		<linearGradient id="SVGID_00000133519943724600095480000018323286310714641299_" gradientUnits="userSpaceOnUse" x1="269.0394" y1="325.7339" x2="212.4947" y2="329.8351" gradientTransform="matrix(1 0 0 -1 -0.0151 596.7022)">
		<stop  offset="0.15" style="stop-color:#018394;stop-opacity:0"/>
		<stop  offset="1" style="stop-color:#018394"/>
	</linearGradient>
	<path style="fill:url(#SVGID_00000133519943724600095480000018323286310714641299_);" d="M278.63,281.62
		c-2.55-12.1-11.22-22.14-22.66-26.19c-8.31-2.95-15.97-3.74-22.48-3.3c1.95,7.15,2.5,14.61,1.61,21.97
		c3.17-0.18,8.14,0.21,13.58,2.14c4.2,1.49,7.54,5.39,8.5,9.96c0,0,4.92,2.23,12.2,0.26C275.79,284.73,278.63,281.62,278.63,281.62z
		"/>
	
		<linearGradient id="SVGID_00000175288992566837947310000007670676422212764546_" gradientUnits="userSpaceOnUse" x1="251.6838" y1="230.096" x2="235.367" y2="283.5052" gradientTransform="matrix(1 0 0 -1 -0.0151 596.7022)">
		<stop  offset="0.15" style="stop-color:#018394;stop-opacity:0"/>
		<stop  offset="1" style="stop-color:#018394"/>
	</linearGradient>
	<path style="fill:url(#SVGID_00000175288992566837947310000007670676422212764546_);" d="M242.97,378.5
		c10.66-6.21,17.37-17.47,17.75-29.8c0.23-8.86-1.43-16.5-3.85-22.6c-6.2,3.98-13.1,6.75-20.34,8.17c1.32,3.34,2.42,8.08,2.28,13.88
		c-0.11,4.5-2.77,8.89-6.79,11.22c0,0,1.12,6.57,3.68,11C238.26,374.8,242.98,378.5,242.97,378.5L242.97,378.5z"/>
	
		<linearGradient id="SVGID_00000057147840685705032440000004406117057941390493_" gradientUnits="userSpaceOnUse" x1="202.9016" y1="244.9713" x2="150.3829" y2="282.4963" gradientTransform="matrix(1 0 0 -1 -0.0151 596.7022)">
		<stop  offset="0.15" style="stop-color:#018394;stop-opacity:0"/>
		<stop  offset="1" style="stop-color:#018394"/>
	</linearGradient>
	<path style="fill:url(#SVGID_00000057147840685705032440000004406117057941390493_);" d="M155.24,327.98
		c-1.11,1.83-2.06,3.76-2.82,5.76c5.27,1.59,12.29,2.85,20.67,2.38c1.27,5.18,3.45,11.73,7.15,18.34c3.57,6.47,8.31,12.22,14,16.94
		c0,0,0.63-5.43,4.67-10.38c2.49-3,5.76-5.26,9.45-6.53c-1.67-1.36-3.21-2.87-4.6-4.52c-0.9-1.06-1.74-2.16-2.51-3.3
		c-2.84-4.27-4.98-8.97-6.35-13.91c-0.81-2.75-1.37-5.57-1.67-8.42c-0.03-0.57-0.11-1.14-0.24-1.69c-1.05-4.83-5.36-9.66-12.69-9.63
		c-1.85,0.06-3.69,0.3-5.49,0.71c-0.41,0.08-1,0.2-1.17,0.23c-1.71,0.17-3.32,0.22-4.85,0.19c-4.24,2.84-8.01,6.33-11.16,10.35"/>
	
		<linearGradient id="SVGID_00000123412709367598980710000001182376636849576878_" gradientUnits="userSpaceOnUse" x1="159.8934" y1="276.8076" x2="174.235" y2="338.1683" gradientTransform="matrix(1 0 0 -1 -0.0151 596.7022)">
		<stop  offset="0.15" style="stop-color:#018394;stop-opacity:0"/>
		<stop  offset="1" style="stop-color:#018394"/>
	</linearGradient>
	<path style="fill:url(#SVGID_00000123412709367598980710000001182376636849576878_);" d="M143.75,306.8
		c4.46-4.83,9.54-9.03,15.12-12.5c-2.55-6.55-3.95-13.5-4.13-20.53c2.13,0.11,4.24,0.42,6.31,0.92c1.38,0.33,2.72,0.74,4.01,1.2
		c5.39,1.94,9.91,4.87,13.24,7.49c0.44,1.47,0.99,3,1.67,4.58c0.07,0.14,0.38,0.69,0.58,1.05c0.77,1.37,1.72,3.09,2.36,5.04
		c2.31,6.97-0.94,12.62-5.19,15.13c-0.49,0.29-0.99,0.54-1.52,0.75c-2.6,1.17-5.09,2.57-7.44,4.2c-4.24,2.84-8.01,6.33-11.16,10.35
		c0,0-0.44-6.36-4.71-11.1C148.44,308.4,143.75,306.8,143.75,306.8z"/>
	
		<linearGradient id="SVGID_00000109031322598102102340000015261116097603682728_" gradientUnits="userSpaceOnUse" x1="150.3427" y1="219.915" x2="209.0571" y2="246.6165" gradientTransform="matrix(1 0 0 -1 -0.0151 596.7022)">
		<stop  offset="0.15" style="stop-color:#018394;stop-opacity:0"/>
		<stop  offset="1" style="stop-color:#018394"/>
	</linearGradient>
	<path style="fill:url(#SVGID_00000109031322598102102340000015261116097603682728_);" d="M140.44,374.3
		c6.52,5.92,15.01,9.2,23.82,9.22c3.3,0,6.6-0.47,9.81-1.44c8.44-2.53,15.15-6.46,20.15-10.67c-5.69-4.72-10.44-10.47-14-16.94
		c-2.75,2.29-6.89,4.81-12.42,6.47c-4.28,1.28-9.26,0.09-12.7-3.03c0,0-0.27,4.97-5.08,10.41
		C146.35,372.47,140.43,374.29,140.44,374.3L140.44,374.3L140.44,374.3z"/>
	
		<linearGradient id="SVGID_00000078021490399183146840000003185117696445071793_" gradientUnits="userSpaceOnUse" x1="173.4283" y1="319.4388" x2="232.312" y2="328.4877" gradientTransform="matrix(1 0 0 -1 -0.0151 596.7022)">
		<stop  offset="0.054" style="stop-color:#018394;stop-opacity:0"/>
		<stop  offset="1" style="stop-color:#018394"/>
	</linearGradient>
	<path style="fill:url(#SVGID_00000078021490399183146840000003185117696445071793_);" d="M213.33,267.87
		c-0.02,0.69-0.09,1.51-0.14,2.19c0,0.08-0.02,0.16-0.03,0.24c-0.05,0.57-0.11,1.14-0.18,1.71l-0.06,0.42
		c-0.06,0.52-0.14,1.03-0.23,1.54l-0.07,0.38c-0.21,1.19-0.46,2.38-0.75,3.56l-0.1,0.38c-0.15,0.59-0.32,1.17-0.5,1.76
		c-0.11,0.38-0.23,0.74-0.34,1.1l-0.14,0.44l-0.49,1.42c-1.25,0.88-2.53,1.88-3.81,3.04c-0.13,0.11-0.54,0.56-0.82,0.88
		c-1.07,1.15-2.39,2.61-4.03,3.82c-5.88,4.35-12.23,3-15.9-0.29c-0.42-0.38-0.81-0.79-1.17-1.23c-0.05-0.05-2.33-2.73-6.29-5.83
		c-3.99-3.18-8.46-5.71-13.24-7.49c0,0-0.97-5.81,2.66-11.78c3.64-5.98,9.78-6.96,9.78-6.96c5.95,2.78,11.49,6.35,16.49,10.61
		c5.42-4.47,11.58-7.97,18.2-10.33c0.15,0.56,0.29,1.13,0.41,1.69c0.08,0.34,0.13,0.69,0.2,1.04l0.1,0.56
		c0.08,0.47,0.14,0.93,0.19,1.39c0,0.05,0.02,0.11,0.03,0.16c0.06,0.51,0.11,1.02,0.16,1.53c0,0,0.05,1.08,0.06,1.85
		c0.02,0.72,0,2.23,0,2.23L213.33,267.87L213.33,267.87z"/>
	
		<linearGradient id="SVGID_00000081605582660446427350000002777161680455309746_" gradientUnits="userSpaceOnUse" x1="114.6741" y1="311.3014" x2="150.4935" y2="268.584" gradientTransform="matrix(1 0 0 -1 -0.0151 596.7022)">
		<stop  offset="0.15" style="stop-color:#018394;stop-opacity:0"/>
		<stop  offset="1" style="stop-color:#018394"/>
	</linearGradient>
	<path style="fill:url(#SVGID_00000081605582660446427350000002777161680455309746_);" d="M112.72,274.83
		c-5.01,11.29-3.84,24.56,3.04,34.6c5,7.31,10.8,12.51,16.32,15.99c2.69-6.89,6.65-13.21,11.68-18.64c-3.01-1.93-6.67-5.1-9.94-9.89
		c-2.53-3.7-2.95-8.83-1.07-13.09c-1.41-1.78-3.53-4.33-8.81-6.7c-5.28-2.36-11.22-2.3-11.22-2.3S112.72,274.83,112.72,274.83z"/>
	<path class="st0" d="M245.25,307.35c-0.59,0.39-1.2,0.77-1.82,1.12c-4.8,2.68-10.85,4.3-16.33,4.87c-0.08,0-0.15,0.02-0.22,0.03
		c-2.1,0.22-4.21,0.27-6.32,0.15c-0.81-0.69-1.69-1.31-2.62-1.84c-1.17-0.69-2.38-1.29-3.62-1.92c-0.16-0.08-0.33-0.16-0.49-0.24
		c-1.12-0.57-2.21-1.2-3.25-1.91c-1.14-0.89-2.19-1.9-3.11-3.02c-0.61-0.75-0.94-1.52-1.34-2.2c-1.19-1.96-1.59-4.29-1.12-6.53
		v-0.04c0.29-1.44,0.84-2.9,1.55-4.5c0.11-0.21,0.19-0.43,0.3-0.65c1-2.21,2.26-4.7,3.45-7.69c1.49-4.14,2.51-8.5,2.85-12.92
		c2.72-28.12-26.54-45.51-35.67-12.93c-6.67-3.13-13.88-4.98-21.23-5.42c23.17-70.74,100.4-21.07,73.64,41.48
		c5.89,3.79,11.08,8.58,15.33,14.16C245.23,307.34,245.25,307.35,245.25,307.35z"/>
	
		<linearGradient id="SVGID_00000114758718308531565850000010156377541900217525_" gradientUnits="userSpaceOnUse" x1="215.1842" y1="309.9933" x2="241.6223" y2="268.1915" gradientTransform="matrix(1 0 0 -1 -0.0151 596.7022)">
		<stop  offset="0.15" style="stop-color:#018394;stop-opacity:0"/>
		<stop  offset="1" style="stop-color:#018394"/>
	</linearGradient>
	<path style="fill:url(#SVGID_00000114758718308531565850000010156377541900217525_);" d="M245.25,307.35
		c-0.6,0.39-1.2,0.77-1.82,1.12c-5.42,3.09-11.21,4.41-16.32,4.87c-0.08,0-0.15,0.02-0.22,0.03c-2.1,0.18-4.21,0.23-6.32,0.15
		c-0.81-0.69-1.69-1.31-2.62-1.84c-0.46-0.28-0.92-0.51-1.42-0.8c-0.36-0.2-0.73-0.38-1.1-0.56c-0.36-0.16-0.71-0.37-1.1-0.55
		c-0.16-0.09-0.33-0.16-0.5-0.25c-1-0.59-2.21-1.12-3.24-1.91c-2.06-1.56-3.56-3.31-4.45-5.21c-1.19-1.96-1.59-4.29-1.12-6.53v-0.04
		c0.14-0.7,0.34-1.39,0.58-2.06l0.26-0.71c0.06-0.18,0.14-0.36,0.22-0.55c0.02-0.06,0.04-0.11,0.06-0.17l0.42-0.97
		c0-0.02,0-0.03,0.02-0.04c0.1-0.21,0.19-0.43,0.29-0.65c0.62-0.63,3.46-3.32,7.73-4.83c21.42-7.65,17.93,0.24,17.93,0.24
		c-0.78,2.63-1.76,4.98-2.61,7.11c5.89,3.79,11.08,8.58,15.32,14.16C245.23,307.34,245.25,307.35,245.25,307.35z"/>
	
		<linearGradient id="SVGID_00000100358840716334170490000008111555088203388043_" gradientUnits="userSpaceOnUse" x1="184.7877" y1="374.7661" x2="165.1033" y2="329.8226" gradientTransform="matrix(1 0 0 -1 -0.0151 596.7022)">
		<stop  offset="0.15" style="stop-color:#018394;stop-opacity:0"/>
		<stop  offset="1" style="stop-color:#018394"/>
	</linearGradient>
	<path style="fill:url(#SVGID_00000100358840716334170490000008111555088203388043_);" d="M183.26,218.75
		c-10.83,3.83-20.82,14.15-26.98,32.97c7.35,0.45,14.55,2.29,21.22,5.42c3.32-11.85,9.3-17.09,15.45-17.61c0,0,1.76-6.98-1.61-13.73
		C188.36,219.77,183.26,218.75,183.26,218.75z"/>
</g>
</svg>
